<svg xmlns="http://www.w3.org/2000/svg" width="30" height="30" viewBox="0 0 30 30" fill="#fff">
  <path d="M11.6687 14.3788H14.3812C15.8731 14.3788 17.3038 14.9714 18.3587 16.0263C19.4136 17.0812 20.0062 18.5119 20.0062 20.0038H11.255V21.2538H21.255V20.0038C21.2514 18.6738 20.8676 17.3727 20.1487 16.2538H23.7562C24.9378 16.2534 26.0953 16.588 27.0944 17.2188C28.0935 17.8496 28.8934 18.7506 29.4012 19.8175C26.445 23.7188 21.6587 26.2538 16.2562 26.2538C12.805 26.2538 9.88123 25.5163 7.50623 24.2225V12.5925C9.02689 12.8099 10.463 13.4258 11.6687 14.3775V14.3788ZM6.25623 23.7538C6.25623 24.0853 6.12453 24.4032 5.89011 24.6376C5.65569 24.8721 5.33775 25.0038 5.00623 25.0038H2.50623C2.17471 25.0038 1.85676 24.8721 1.62234 24.6376C1.38792 24.4032 1.25623 24.0853 1.25623 23.7538V12.5038C1.25623 12.1722 1.38792 11.8543 1.62234 11.6199C1.85676 11.3855 2.17471 11.2538 2.50623 11.2538H5.00623C5.33775 11.2538 5.65569 11.3855 5.89011 11.6199C6.12453 11.8543 6.25623 12.1722 6.25623 12.5038V23.7538ZM22.5062 6.25375C22.9987 6.25375 23.4863 6.35075 23.9413 6.53921C24.3963 6.72766 24.8097 7.00388 25.1579 7.3521C25.5061 7.70032 25.7823 8.11372 25.9708 8.56869C26.1592 9.02366 26.2562 9.5113 26.2562 10.0038C26.2562 10.4962 26.1592 10.9838 25.9708 11.4388C25.7823 11.8938 25.5061 12.3072 25.1579 12.6554C24.8097 13.0036 24.3963 13.2798 23.9413 13.4683C23.4863 13.6568 22.9987 13.7538 22.5062 13.7538C21.5117 13.7538 20.5578 13.3587 19.8546 12.6554C19.1513 11.9521 18.7562 10.9983 18.7562 10.0038C18.7562 9.00919 19.1513 8.05536 19.8546 7.3521C20.5578 6.64884 21.5117 6.25375 22.5062 6.25375ZM13.7562 2.50375C14.2487 2.50375 14.7363 2.60075 15.1913 2.78921C15.6463 2.97766 16.0597 3.25388 16.4079 3.6021C16.7561 3.95032 17.0323 4.36372 17.2208 4.81869C17.4092 5.27366 17.5062 5.7613 17.5062 6.25375C17.5062 6.74621 17.4092 7.23385 17.2208 7.68882C17.0323 8.14379 16.7561 8.55718 16.4079 8.9054C16.0597 9.25362 15.6463 9.52985 15.1913 9.7183C14.7363 9.90676 14.2487 10.0038 13.7562 10.0038C12.7617 10.0038 11.8078 9.60867 11.1046 8.9054C10.4013 8.20214 10.0062 7.24832 10.0062 6.25375C10.0062 5.25919 10.4013 4.30536 11.1046 3.6021C11.8078 2.89884 12.7617 2.50375 13.7562 2.50375Z" />
</svg>