<svg xmlns="http://www.w3.org/2000/svg" width="51" height="51" viewBox="0 0 21 21" fill="none">
  <path opacity="0.4" d="M13.8666 2.35526H6.79996C4.49996 2.35526 3.66663 3.1886 3.66663 5.53026V15.8469C3.66663 18.1886 4.49996 19.0219 6.79996 19.0219H13.8583C16.1666 19.0219 17 18.1886 17 15.8469V5.53026C17 3.1886 16.1666 2.35526 13.8666 2.35526Z" fill="#2686FF"/>
  <path d="M12 5.89693H8.66663C8.32496 5.89693 8.04163 5.6136 8.04163 5.27193C8.04163 4.93027 8.32496 4.64693 8.66663 4.64693H12C12.3416 4.64693 12.625 4.93027 12.625 5.27193C12.625 5.6136 12.3416 5.89693 12 5.89693Z" fill="#2686FF"/>
  <path d="M10.3333 16.7719C11.1387 16.7719 11.7917 16.119 11.7917 15.3136C11.7917 14.5082 11.1387 13.8553 10.3333 13.8553C9.52792 13.8553 8.875 14.5082 8.875 15.3136C8.875 16.119 9.52792 16.7719 10.3333 16.7719Z" fill="#2686FF"/>
</svg>