<svg xmlns="http://www.w3.org/2000/svg" width="100" height="100" viewBox="0 0 100 100" fill="none">
  <path d="M50 91.6667C40.3472 89.2361 32.3778 83.6973 26.0917 75.05C19.8055 66.4028 16.6639 56.8028 16.6667 46.25V20.8334L50 8.33337L83.3333 20.8334V46.25C83.3333 56.8056 80.1917 66.407 73.9083 75.0542C67.625 83.7014 59.6555 89.2389 50 91.6667ZM50 82.9167C56.7361 80.8334 62.3611 76.7181 66.875 70.5709C71.3889 64.4237 74.0278 57.5667 74.7917 50H50V17.1875L25 26.5625V48.125C25 48.6112 25.0694 49.2361 25.2083 50H50V82.9167Z" fill="white"/>
</svg>