<svg xmlns="http://www.w3.org/2000/svg" width="120" height="120" viewBox="0 0 120 120" fill="none">
<rect width="100" height="100" transform="translate(98 120) rotate(-167.326)" fill="white"/>
<path d="M73.5023 67.513C74.1715 64.5373 74.1293 61.5725 73.552 58.7649L93.2154 46.3218L94.5866 40.224C94.5866 40.224 92.3156 33.3072 87.8276 32.298L79.6974 30.4696L77.869 38.5999L69.7387 36.7715L67.9103 44.9018L57.7475 42.6164C46.5196 40.0914 35.3758 47.1432 32.8509 58.3712C30.3259 69.5991 37.3777 80.7428 48.6057 83.2678C59.8336 85.7928 70.9773 78.7409 73.5023 67.513ZM55.0049 54.8118C56.0728 55.0522 57.0829 55.5006 57.9775 56.1314C58.8721 56.7622 59.6337 57.563 60.2188 58.4882C60.8039 59.4133 61.201 60.4446 61.3876 61.5232C61.5741 62.6018 61.5464 63.7066 61.3059 64.7745C61.0655 65.8424 60.6171 66.8525 59.9863 67.7471C59.3555 68.6417 58.5547 69.4032 57.6296 69.9884C56.7044 70.5735 55.6731 70.9706 54.5945 71.1571C53.5159 71.3437 52.4111 71.3159 51.3432 71.0755C49.1865 70.5899 47.3111 69.2675 46.1294 67.3991C44.9477 65.5308 44.5567 63.2695 45.0422 61.1128C45.5278 58.9561 46.8502 57.0806 48.7186 55.8989C50.587 54.7173 52.8482 54.3262 55.0049 54.8118Z" fill="#004225"/>
</svg>