<svg xmlns="http://www.w3.org/2000/svg" width="50" height="51" viewBox="0 0 20 21" fill="none">
  <path opacity="0.4" d="M5.92498 5.65526L13.4416 3.14693C16.8166 2.02193 18.65 3.8636 17.5333 7.2386L15.025 14.7553C13.3416 19.8136 10.575 19.8136 8.89165 14.7553L8.14998 12.5219L5.91665 11.7803C0.866647 10.1053 0.866647 7.34693 5.92498 5.65526Z" fill="#C9009D"/>
  <path d="M10.1 10.3803L13.275 7.19693L10.1 10.3803Z" fill="#C9009D"/>
  <path d="M10.1 11.0053C9.94169 11.0053 9.78336 10.9469 9.65836 10.8219C9.4167 10.5803 9.4167 10.1803 9.65836 9.9386L12.825 6.75526C13.0667 6.5136 13.4667 6.5136 13.7084 6.75526C13.95 6.99693 13.95 7.39693 13.7084 7.6386L10.5417 10.8219C10.4167 10.9386 10.2584 11.0053 10.1 11.0053Z" fill="#C9009D"/>
</svg>