<svg xmlns="http://www.w3.org/2000/svg" width="60" height="40" viewBox="0 0 60 40" fill="none">
  <rect x="0.5" y="0.5" width="59" height="39" rx="9.5" stroke="white"/>
  <path d="M0.5 10.5H13.8C16.7032 10.5 18.8495 10.5004 20.5454 10.6435C22.2351 10.7861 23.432 11.0677 24.4453 11.6042C26.1283 12.4953 27.5047 13.8717 28.3958 15.5547C28.9323 16.568 29.2139 17.7649 29.3565 19.4546C29.4996 21.1505 29.5 23.2968 29.5 26.2V39.5H16.2C13.2968 39.5 11.1505 39.4996 9.45462 39.3565C7.76491 39.2139 6.56803 38.9323 5.55467 38.3958C3.87167 37.5047 2.49533 36.1283 1.60423 34.4453C1.06768 33.432 0.786112 32.2351 0.643522 30.5454C0.500415 28.8495 0.5 26.7032 0.5 23.8V10.5Z" stroke="white"/>
  <line x1="1" y1="19.5" x2="29" y2="19.5" stroke="white"/>
  <line x1="40" y1="11.5" x2="60" y2="11.5" stroke="white"/>
  <line x1="40" y1="21.5" x2="60" y2="21.5" stroke="white"/>
  <line x1="40" y1="31.5" x2="60" y2="31.5" stroke="white"/>
  <line x1="1" y1="29.5" x2="29" y2="29.5" stroke="white"/>
  <line x1="40.5" y1="1" x2="40.5" y2="40" stroke="white"/>
</svg>