<svg xmlns="http://www.w3.org/2000/svg" width="43" height="14" viewBox="0 0 43 14" fill="none">
  <path d="M15.2705 13.7581L17.406 1.22963H20.8207L18.6845 13.7581H15.2705ZM31.0058 1.50448C30.0259 1.14951 28.9907 0.971386 27.9485 0.97841C24.5786 0.97841 22.2046 2.67553 22.1841 5.10835C22.1656 6.90643 23.8793 7.90933 25.173 8.50763C26.5007 9.12127 26.9469 9.51246 26.9405 10.0603C26.9322 10.8989 25.88 11.2818 24.9001 11.2818C23.5348 11.2818 22.8099 11.09 21.6894 10.6253L21.2502 10.4265L20.7715 13.2275C21.5679 13.5766 23.0413 13.8795 24.5703 13.8949C28.1556 13.8949 30.4829 12.2176 30.5098 9.61984C30.5226 8.19633 29.6149 7.11288 27.6462 6.2199C26.454 5.64462 25.724 5.2547 25.7317 4.66855C25.7317 4.14887 26.3498 3.59279 27.6851 3.59279C28.56 3.57321 29.4294 3.73649 30.2375 4.0722L30.543 4.21664L31.0058 1.50448ZM39.7783 1.22963H37.1511C36.3374 1.22963 35.7283 1.45208 35.3709 2.26388L30.3212 13.6942H33.9155C33.9155 13.6942 34.4908 12.1741 34.6231 11.8405L38.9294 11.8456C39.0298 12.2777 39.3385 13.6942 39.3385 13.6942H42.5294L39.7783 1.22963ZM35.6011 9.28363C35.8829 8.56261 36.96 5.78588 36.96 5.78588C36.9396 5.81912 37.24 5.06102 37.4119 4.59121L37.6427 5.67021C37.6427 5.67021 38.296 8.65721 38.4321 9.28363H35.6011ZM12.3729 1.22963L9.0414 9.74322L8.68662 8.0129C8.06659 6.01857 6.13427 3.85806 3.97375 2.77652L7.02022 13.6942L10.6202 13.6903L15.9774 1.22963H12.3563" fill="url(#paint0_linear_804_740)"/>
  <path d="M5.78226 1.22952H0.306186L0.262085 1.48966C4.54093 2.52582 7.37196 5.02896 8.54746 8.03579L7.3515 2.28293C7.14504 1.49095 6.54676 1.25445 5.80592 1.22696" fill="url(#paint1_linear_804_740)"/>
  <defs>
    <linearGradient id="paint0_linear_804_740" x1="23.2516" y1="0.97821" x2="23.2516" y2="13.8949" gradientUnits="userSpaceOnUse">
      <stop stop-color="white"/>
      <stop offset="1" stop-color="white" stop-opacity="0.75"/>
    </linearGradient>
    <linearGradient id="paint1_linear_804_740" x1="4.40477" y1="1.22696" x2="4.40477" y2="8.03579" gradientUnits="userSpaceOnUse">
      <stop stop-color="white"/>
      <stop offset="1" stop-color="white" stop-opacity="0.75"/>
    </linearGradient>
  </defs>
</svg>