<svg xmlns="http://www.w3.org/2000/svg" width="40" height="41" viewBox="0 0 40 41" fill="none">
  <path fill-rule="evenodd" clip-rule="evenodd" d="M12 20.0599C12 21.1208 11.5786 22.1382 10.8284 22.8883C10.0783 23.6385 9.06087 24.0599 8 24.0599C6.93913 24.0599 5.92172 23.6385 5.17157 22.8883C4.42143 22.1382 4 21.1208 4 20.0599C4 18.999 4.42143 17.9816 5.17157 17.2315C5.92172 16.4813 6.93913 16.0599 8 16.0599C9.06087 16.0599 10.0783 16.4813 10.8284 17.2315C11.5786 17.9816 12 18.999 12 20.0599ZM19.706 20.0599C19.7069 21.9723 19.2263 23.8542 18.3084 25.5319C17.3905 27.2097 16.065 28.6293 14.454 29.6599C14.1417 29.8516 13.7667 29.9133 13.4094 29.8316C13.0522 29.7499 12.7412 29.5314 12.5433 29.223C12.3453 28.9146 12.2762 28.5408 12.3508 28.182C12.4253 27.8232 12.6376 27.5079 12.942 27.3039C14.1581 26.5267 15.1587 25.4556 15.8516 24.1895C16.5444 22.9234 16.907 21.5031 16.906 20.0599C16.907 18.6154 16.5438 17.194 15.8499 15.9271C15.156 14.6602 14.1538 13.5888 12.936 12.8119C12.6233 12.6117 12.403 12.2954 12.3235 11.9327C12.2439 11.57 12.3118 11.1906 12.512 10.8779C12.7122 10.5652 13.0285 10.3449 13.3912 10.2654C13.7539 10.1858 14.1333 10.2537 14.446 10.4539C16.0593 11.4841 17.387 12.9043 18.3063 14.5832C19.2257 16.2622 19.7071 18.1457 19.706 20.0599ZM27.594 20.0599C27.594 26.1799 24.832 31.7859 20.146 35.4119C19.8522 35.636 19.4816 35.7348 19.1152 35.6869C18.7488 35.6389 18.4162 35.448 18.19 35.1557C17.9637 34.8635 17.8622 34.4937 17.9076 34.1269C17.9529 33.7602 18.1414 33.4262 18.432 33.1979C22.434 30.0979 24.794 25.3099 24.794 20.0579C24.7969 17.5379 24.2248 15.0504 23.1213 12.7848C22.0178 10.5192 20.4119 8.53523 18.426 6.9839C18.277 6.87209 18.1518 6.73167 18.0578 6.57088C17.9638 6.41008 17.9028 6.23214 17.8784 6.04747C17.854 5.8628 17.8667 5.67512 17.9158 5.49543C17.9649 5.31574 18.0493 5.14764 18.1641 5.00099C18.279 4.85434 18.4219 4.73208 18.5846 4.64137C18.7473 4.55067 18.9265 4.49334 19.1116 4.47275C19.2967 4.45216 19.4841 4.46872 19.6628 4.52146C19.8414 4.5742 20.0077 4.66207 20.152 4.7799C22.4728 6.59318 24.3494 8.91196 25.639 11.5598C26.9286 14.2076 27.5972 17.1147 27.594 20.0599ZM36 20.0599C36 27.8699 33 34.5459 27.36 39.6979C27.0858 39.9485 26.7232 40.08 26.3521 40.0633C25.9809 40.0466 25.6316 39.8831 25.381 39.6089C25.1304 39.3347 24.9989 38.9721 25.0156 38.601C25.0323 38.2298 25.1958 37.8805 25.47 37.6299C30.536 33.0039 33.2 27.0779 33.2 20.0599C33.2 13.2159 30.456 7.1539 25.46 2.4799C25.3126 2.35827 25.1916 2.20775 25.1046 2.0376C25.0175 1.86746 24.9663 1.68129 24.9539 1.49058C24.9415 1.29986 24.9683 1.10863 25.0327 0.92867C25.097 0.748709 25.1975 0.583828 25.328 0.444183C25.4585 0.304539 25.6162 0.193089 25.7914 0.116698C25.9666 0.040308 26.1555 0.00059524 26.3467 6.64025e-06C26.5378 -0.000581959 26.727 0.037966 26.9026 0.113276C27.0783 0.188586 27.2367 0.299063 27.368 0.437901C32.924 5.6279 36 12.4259 36 20.0579" fill="white"/>
</svg>